<svg width="344" height="144" viewBox="0 0 344 144" fill="none" xmlns="http://www.w3.org/2000/svg">
<g opacity="0.7" clip-path="url(#clip0_5109_86265)">
<path d="M175.5 90.5V125.5H244.5V95.5H292" stroke="white" stroke-opacity="0.3" stroke-width="0.7" stroke-dasharray="1.4 1.4"/>
<path d="M190 79H222V110H83" stroke="white" stroke-opacity="0.3" stroke-width="0.7" stroke-dasharray="1.4 1.4"/>
<rect x="153" y="53" width="38.6326" height="38.6326" rx="5.15101" fill="#2160FD"/>
<path d="M174.732 74.7316H184.393V84.3928H174.732V74.7316Z" fill="white"/>
<path d="M179.563 60.2794C179.164 60.2531 178.761 60.2397 178.355 60.2397C168.351 60.2397 160.24 68.35 160.24 78.3545C160.24 78.76 160.254 79.1624 160.28 79.5613H172.317V72.3153H179.563V60.2794Z" fill="white"/>
<path d="M33 35.5V54H124.5V77.613C124.5 84.4438 123.283 92.4153 116.803 94.5772C109.163 97.1263 99.5 93.0231 99.5 80H153" stroke="white" stroke-opacity="0.3" stroke-width="0.7" stroke-dasharray="1.4 1.4"/>
<path d="M173.5 52.5V37H232C240.5 37 254 43 259 52.5H232V19H293" stroke="white" stroke-opacity="0.3" stroke-width="0.7" stroke-dasharray="1.4 1.4"/>
<path d="M157 16H138.5V68.5H153" stroke="white" stroke-opacity="0.3" stroke-width="0.7" stroke-dasharray="1.4 1.4"/>
<rect x="58.8423" y="91.4754" width="37.6823" height="37.6823" rx="4.40658" fill="black"/>
<path d="M73.2324 100.249L74.3654 99.8869C75.4288 99.5479 76.5629 100.096 77.0188 101.168L77.9232 103.304C78.317 104.233 78.0991 105.327 77.382 106.008L75.3878 107.901C75.5099 109.034 75.8911 110.149 76.5292 111.246C77.1354 112.308 77.9485 113.237 78.9204 113.978L81.3158 113.178C82.2245 112.876 83.2132 113.224 83.7691 114.043L85.0674 115.948C85.7149 116.9 85.5991 118.212 84.7957 119.019L83.9344 119.883C83.0774 120.743 81.8528 121.056 80.7209 120.702C78.0475 119.868 75.5899 117.393 73.3472 113.276C71.1013 109.153 70.3084 105.653 70.9697 102.78C71.2476 101.572 72.1079 100.608 73.2324 100.249Z" fill="#2160FD"/>
<rect x="58.8423" y="91.4754" width="37.6823" height="37.6823" rx="4.40658" stroke="url(#paint0_linear_5109_86265)" stroke-width="1.68469"/>
<rect x="17.0654" y="12.0657" width="31.2361" height="31.2361" rx="3.65276" fill="black"/>
<path d="M37.6993 29.4297C37.9571 29.4296 38.2125 29.4803 38.4508 29.5789C38.689 29.6775 38.9055 29.8221 39.0879 30.0043C39.2702 30.1866 39.4149 30.4031 39.5136 30.6413C39.6123 30.8795 39.6631 31.1348 39.6631 31.3927V32.1939C39.663 32.6944 39.5065 33.1824 39.2154 33.5895C37.866 35.4774 35.6622 36.4122 32.6771 36.4122C29.6904 36.4122 27.4883 35.4766 26.1424 33.5869C25.8529 33.1804 25.6973 32.6938 25.6973 32.1948V31.3918C25.6972 31.1339 25.7478 30.8786 25.8464 30.6403C25.945 30.4021 26.0896 30.1856 26.2719 30.0032C26.4542 29.8208 26.6706 29.6762 26.9088 29.5775C27.147 29.4788 27.4024 29.428 27.6602 29.428H37.6984L37.6993 29.4297ZM32.6771 18.9595C33.8346 18.9595 34.9446 19.4193 35.763 20.2377C36.5814 21.0561 37.0412 22.1661 37.0412 23.3235C37.0412 24.4809 36.5814 25.591 35.763 26.4094C34.9446 27.2278 33.8346 27.6876 32.6771 27.6876C31.5197 27.6876 30.4097 27.2278 29.5913 26.4094C28.7729 25.591 28.3131 24.4809 28.3131 23.3235C28.3131 22.1661 28.7729 21.0561 29.5913 20.2377C30.4097 19.4193 31.5197 18.9595 32.6771 18.9595Z" fill="#2160FD"/>
<rect x="17.0654" y="12.0657" width="31.2361" height="31.2361" rx="3.65276" stroke="url(#paint1_linear_5109_86265)" stroke-width="1.3965"/>
<rect x="148.108" y="0.108475" width="33.1505" height="33.1505" rx="3.87663" fill="black"/>
<path d="M168.016 8.90283C170.057 8.90184 172.017 9.70297 173.473 11.1335C174.929 12.5641 175.765 14.5095 175.8 16.5504C175.835 18.5913 175.066 20.5642 173.66 22.0438C172.254 23.5235 170.323 24.3913 168.283 24.4603L168.016 24.4648H161.351C159.31 24.4657 157.35 23.6646 155.894 22.2341C154.438 20.8035 153.603 18.8581 153.568 16.8172C153.533 14.7763 154.301 12.8034 155.707 11.3238C157.113 9.84412 159.044 8.97627 161.084 8.90728L161.35 8.90283H168.015H168.016ZM167.74 17.2396C167.372 17.2396 167.019 17.386 166.758 17.6465C166.497 17.9071 166.351 18.2605 166.351 18.629C166.351 18.9975 166.497 19.351 166.758 19.6115C167.019 19.8721 167.372 20.0185 167.74 20.0185C168.109 20.0185 168.462 19.8721 168.723 19.6115C168.984 19.351 169.13 18.9975 169.13 18.629C169.13 18.2605 168.984 17.9071 168.723 17.6465C168.462 17.386 168.109 17.2396 167.74 17.2396ZM160.237 13.3491C160.036 13.3491 159.841 13.4221 159.689 13.5545C159.538 13.6869 159.439 13.8698 159.411 14.0694L159.404 14.1828V15.8479H157.736C157.524 15.8457 157.318 15.925 157.162 16.0694C157.006 16.2138 156.911 16.4125 156.896 16.6247C156.882 16.837 156.949 17.0467 157.084 17.2111C157.219 17.3754 157.412 17.4818 157.623 17.5086L157.736 17.5164L159.404 17.5152V19.1848C159.404 19.396 159.484 19.5994 159.628 19.7537C159.772 19.908 159.97 20.0019 160.181 20.0163C160.391 20.0307 160.6 19.9646 160.763 19.8313C160.927 19.698 161.034 19.5074 161.063 19.2982L161.071 19.1848V17.5152H162.738C162.948 17.5133 163.15 17.4322 163.302 17.2882C163.455 17.1442 163.548 16.9479 163.562 16.7385C163.577 16.529 163.511 16.3219 163.38 16.1585C163.248 15.995 163.059 15.8873 162.852 15.8568L162.738 15.849L161.071 15.8479V14.1828C161.071 13.9617 160.983 13.7496 160.827 13.5933C160.671 13.4369 160.458 13.3491 160.237 13.3491ZM169.964 13.3491C169.595 13.3491 169.242 13.4955 168.981 13.7561C168.721 14.0166 168.574 14.37 168.574 14.7386C168.574 15.1071 168.721 15.4605 168.981 15.721C169.242 15.9816 169.595 16.128 169.964 16.128C170.332 16.128 170.685 15.9816 170.946 15.721C171.207 15.4605 171.353 15.1071 171.353 14.7386C171.353 14.37 171.207 14.0166 170.946 13.7561C170.685 13.4955 170.332 13.3491 169.964 13.3491Z" fill="#2160FD"/>
<rect x="148.108" y="0.108475" width="33.1505" height="33.1505" rx="3.87663" stroke="url(#paint2_linear_5109_86265)" stroke-width="1.48209"/>
<rect x="287.856" y="8.85589" width="38.2882" height="38.2882" rx="4.47744" fill="black"/>
<path d="M308.133 23.1121C308.635 22.6104 309.315 22.3286 310.025 22.3286C310.734 22.3286 311.414 22.6104 311.916 23.1121C312.418 23.6138 312.7 24.2942 312.7 25.0036C312.7 25.7131 312.418 26.3935 311.916 26.8952C311.414 27.3968 310.734 27.6786 310.025 27.6786C309.315 27.6786 308.635 27.3968 308.133 26.8952C307.631 26.3935 307.35 25.7131 307.35 25.0036C307.35 24.2942 307.631 23.6138 308.133 23.1121ZM310.781 24.2462C310.682 24.1468 310.564 24.0681 310.434 24.0143C310.304 23.9606 310.165 23.933 310.024 23.933C309.884 23.9331 309.745 23.9608 309.615 24.0146C309.485 24.0684 309.367 24.1473 309.268 24.2467C309.168 24.3461 309.09 24.4641 309.036 24.5939C308.982 24.7238 308.954 24.8629 308.955 25.0035C308.955 25.144 308.982 25.2831 309.036 25.4129C309.09 25.5428 309.169 25.6607 309.268 25.76C309.47 25.9549 309.74 26.0627 310.021 26.0603C310.301 26.0579 310.57 25.9454 310.768 25.747C310.966 25.5486 311.079 25.2803 311.081 24.9998C311.084 24.7193 310.976 24.4479 310.781 24.2462Z" fill="#2160FD"/>
<path d="M315.236 17.85C315.692 17.9916 316.106 18.2418 316.443 18.5792C316.781 18.9165 317.031 19.3308 317.173 19.7864L317.394 20.4979C317.785 21.7547 317.824 23.0942 317.509 24.3719C317.193 25.6496 316.535 26.8167 315.604 27.7473L314.536 28.815C315.076 29.5357 315.337 30.4264 315.272 31.324C315.208 32.2217 314.822 33.066 314.186 33.7022L312.857 35.031C312.706 35.1812 312.502 35.2656 312.29 35.2656C312.077 35.2656 311.873 35.1812 311.723 35.031L310.022 33.3299L309.832 33.5192C309.658 33.6931 309.452 33.831 309.225 33.9251C308.998 34.0192 308.754 34.0677 308.508 34.0677C308.262 34.0677 308.019 34.0192 307.792 33.9251C307.565 33.831 307.358 33.6931 307.184 33.5192L306.663 32.9982L305.796 34.4853C305.734 34.5914 305.649 34.6819 305.546 34.7498C305.444 34.8177 305.328 34.8612 305.206 34.877C305.084 34.8928 304.96 34.8805 304.844 34.841C304.728 34.8014 304.622 34.7358 304.535 34.649L300.374 30.4883C300.287 30.402 300.222 30.2971 300.182 30.1817C300.143 30.0662 300.13 29.9433 300.145 29.8221C300.16 29.701 300.203 29.585 300.269 29.4827C300.336 29.3805 300.425 29.2949 300.53 29.2323L302.011 28.3454L301.508 27.8425C301.334 27.6687 301.196 27.4623 301.102 27.2351C301.008 27.0079 300.959 26.7645 300.959 26.5186C300.959 26.2727 301.008 26.0292 301.102 25.802C301.196 25.5749 301.334 25.3685 301.508 25.1946L301.7 25.002L299.997 23.3009C299.922 23.2264 299.863 23.138 299.823 23.0406C299.783 22.9432 299.762 22.8388 299.762 22.7334C299.762 22.628 299.783 22.5236 299.823 22.4262C299.863 22.3288 299.922 22.2403 299.997 22.1658L301.327 20.836C301.963 20.1996 302.808 19.8139 303.706 19.7496C304.604 19.6854 305.494 19.9469 306.215 20.4861L307.281 19.4216C308.211 18.4914 309.377 17.833 310.654 17.5174C311.931 17.2017 313.27 17.2409 314.527 17.6307L315.236 17.85ZM315.641 20.2636C315.576 20.0564 315.462 19.868 315.309 19.7146C315.156 19.5612 314.967 19.4474 314.76 19.3831L314.052 19.1638C313.075 18.8603 312.033 18.8295 311.039 19.0748C310.046 19.3201 309.138 19.8322 308.415 20.5557L302.642 26.3297C302.592 26.3799 302.564 26.4478 302.564 26.5186C302.564 26.5894 302.592 26.6573 302.642 26.7074L308.319 32.3852C308.37 32.4352 308.438 32.4632 308.508 32.4632C308.579 32.4632 308.647 32.4352 308.697 32.3852L314.47 26.6133C315.194 25.8894 315.706 24.9815 315.951 23.9878C316.196 22.9942 316.165 21.9524 315.861 20.9751L315.641 20.2636ZM301.319 34.8427C301.466 34.6914 301.547 34.4887 301.545 34.2784C301.543 34.068 301.459 33.8667 301.31 33.7178C301.161 33.569 300.96 33.4845 300.75 33.4826C300.539 33.4807 300.337 33.5614 300.185 33.7075L297.536 36.3554C297.39 36.5068 297.309 36.7096 297.311 36.92C297.313 37.1303 297.398 37.3316 297.547 37.4803C297.695 37.629 297.897 37.7133 298.107 37.715C298.318 37.7167 298.52 37.6357 298.671 37.4895L301.319 34.8427ZM299.238 31.6277C299.389 31.7782 299.473 31.9821 299.473 32.1947C299.473 32.4074 299.389 32.6113 299.238 32.7618L298.104 33.8958C298.03 33.9725 297.942 34.0337 297.844 34.0758C297.746 34.1179 297.641 34.14 297.534 34.141C297.428 34.142 297.322 34.1217 297.224 34.0814C297.125 34.0411 297.035 33.9816 296.96 33.9063C296.885 33.831 296.825 33.7414 296.785 33.6428C296.744 33.5443 296.724 33.4386 296.725 33.3321C296.726 33.2255 296.748 33.1202 296.79 33.0223C296.832 32.9244 296.893 32.8358 296.969 32.7618L298.103 31.6277C298.178 31.5531 298.266 31.494 298.364 31.4536C298.461 31.4133 298.566 31.3925 298.671 31.3925C298.776 31.3925 298.881 31.4133 298.978 31.4536C299.075 31.494 299.164 31.5531 299.238 31.6277ZM303.397 36.9246C303.476 36.8512 303.539 36.7626 303.583 36.6641C303.627 36.5657 303.65 36.4595 303.652 36.3517C303.654 36.244 303.634 36.137 303.594 36.0371C303.554 35.9371 303.494 35.8464 303.417 35.7702C303.341 35.694 303.25 35.6339 303.151 35.5936C303.051 35.5532 302.944 35.5334 302.836 35.5353C302.728 35.5372 302.622 35.5608 302.523 35.6046C302.425 35.6485 302.336 35.7117 302.263 35.7906L301.13 36.9225C300.988 37.0746 300.911 37.2758 300.915 37.4836C300.918 37.6915 301.003 37.8899 301.15 38.0369C301.297 38.1839 301.495 38.2681 301.703 38.2718C301.911 38.2754 302.112 38.1983 302.264 38.0565L303.398 36.9246H303.397Z" fill="#2160FD"/>
<rect x="287.856" y="8.85589" width="38.2882" height="38.2882" rx="4.47744" stroke="url(#paint3_linear_5109_86265)" stroke-width="1.71178"/>
<rect x="288.006" y="74.1893" width="44.9887" height="44.9887" rx="5.26099" fill="black"/>
<path d="M301.825 84.6155H319.172C320.425 84.6154 321.63 85.0945 322.54 85.9545C323.45 86.8146 323.997 87.9903 324.068 89.2406L324.075 89.5181V103.849C324.075 105.101 323.596 106.306 322.736 107.216C321.876 108.127 320.7 108.673 319.45 108.744L319.172 108.752H301.825C300.572 108.752 299.367 108.273 298.457 107.413C297.547 106.553 297 105.377 296.929 104.127L296.922 103.849V89.5181C296.922 88.2659 297.401 87.061 298.261 86.1508C299.121 85.2406 300.297 84.6939 301.547 84.623L301.825 84.6155ZM307.561 93.0405C307.509 93.1458 307.481 93.2621 307.481 93.3799V99.9902C307.481 100.119 307.514 100.245 307.577 100.358C307.64 100.47 307.73 100.564 307.839 100.632C307.949 100.7 308.074 100.738 308.202 100.744C308.331 100.749 308.459 100.722 308.574 100.665L315.184 97.3609C315.309 97.2983 315.415 97.202 315.489 97.0828C315.563 96.9635 315.602 96.8261 315.602 96.6858C315.602 96.5456 315.563 96.4081 315.489 96.2889C315.415 96.1696 315.309 96.0733 315.184 96.0108L308.574 92.7056C308.395 92.616 308.188 92.6011 307.998 92.6642C307.808 92.7273 307.651 92.8632 307.561 93.042V93.0405Z" fill="#2160FD"/>
<rect x="288.006" y="74.1893" width="44.9887" height="44.9887" rx="5.26099" stroke="url(#paint4_linear_5109_86265)" stroke-width="2.01135"/>
</g>
<defs>
<linearGradient id="paint0_linear_5109_86265" x1="77.6835" y1="90.6331" x2="77.6835" y2="130" gradientUnits="userSpaceOnUse">
<stop stop-color="#424242"/>
<stop offset="1" stop-opacity="0"/>
</linearGradient>
<linearGradient id="paint1_linear_5109_86265" x1="32.6835" y1="11.3674" x2="32.6835" y2="44" gradientUnits="userSpaceOnUse">
<stop stop-color="#424242"/>
<stop offset="1" stop-opacity="0"/>
</linearGradient>
<linearGradient id="paint2_linear_5109_86265" x1="164.683" y1="-0.632568" x2="164.683" y2="34" gradientUnits="userSpaceOnUse">
<stop stop-color="#424242"/>
<stop offset="1" stop-opacity="0"/>
</linearGradient>
<linearGradient id="paint3_linear_5109_86265" x1="307" y1="8" x2="307" y2="48" gradientUnits="userSpaceOnUse">
<stop stop-color="#424242"/>
<stop offset="1" stop-opacity="0"/>
</linearGradient>
<linearGradient id="paint4_linear_5109_86265" x1="310.5" y1="73.1836" x2="310.5" y2="120.184" gradientUnits="userSpaceOnUse">
<stop stop-color="#424242"/>
<stop offset="1" stop-opacity="0"/>
</linearGradient>
<clipPath id="clip0_5109_86265">
<rect width="344" height="144" fill="white"/>
</clipPath>
</defs>
</svg>
