<svg width="344" height="144" viewBox="0 0 344 144" fill="none" xmlns="http://www.w3.org/2000/svg">
<g opacity="0.7" clip-path="url(#clip0_5109_86572)">
<path d="M82.5 34.9098C82.5 25.8469 89.8469 18.5 98.9098 18.5H368.259C377.322 18.5 384.669 25.8469 384.669 34.9098V194.345C384.669 203.408 377.322 210.755 368.259 210.755H98.9098C89.8469 210.755 82.5 203.408 82.5 194.345V34.9098Z" fill="black" stroke="url(#paint0_linear_5109_86572)"/>
<path d="M115.142 44.0685L115.142 44.0688C115.475 44.4064 115.754 44.7935 115.969 45.2165C116 45.2739 116.02 45.3369 116.026 45.4019C116.032 45.4672 116.026 45.5331 116.006 45.5958C115.987 45.6585 115.955 45.7167 115.913 45.767C115.871 45.8172 115.819 45.8585 115.76 45.8884C115.702 45.9183 115.638 45.9362 115.573 45.9411C115.507 45.9459 115.441 45.9377 115.379 45.9167C115.317 45.8958 115.26 45.8626 115.21 45.8192C115.161 45.776 115.121 45.7234 115.093 45.6646C114.924 45.3331 114.706 45.0296 114.445 44.7647C114.055 44.3748 113.578 44.0828 113.054 43.9127C112.529 43.7425 111.972 43.6991 111.427 43.7859C110.882 43.8728 110.366 44.0874 109.92 44.4123C109.475 44.7371 109.112 45.163 108.863 45.6549L115.142 44.0685ZM115.142 44.0685C114.642 43.5683 114.03 43.1938 113.357 42.9756C112.685 42.7574 111.97 42.7018 111.272 42.8132C110.573 42.9246 109.911 43.2 109.34 43.6167C108.768 44.0333 108.304 44.5795 107.984 45.2104L107.984 45.2105M115.142 44.0685L107.984 45.2105M107.984 45.2105C107.955 45.2682 107.937 45.3311 107.932 45.3956C107.928 45.4601 107.935 45.5249 107.956 45.5863C107.976 45.6477 108.008 45.7046 108.05 45.7537C108.092 45.8027 108.144 45.843 108.201 45.8721C108.259 45.9013 108.322 45.9188 108.386 45.9237C108.451 45.9286 108.516 45.9207 108.577 45.9005C108.639 45.8804 108.695 45.8483 108.744 45.8061C108.794 45.764 108.834 45.7126 108.863 45.6549L107.984 45.2105ZM114.598 46.6271C114.454 46.2999 114.248 45.9918 113.997 45.7408C113.461 45.205 112.734 44.9039 111.976 44.9039C111.218 44.9039 110.491 45.205 109.955 45.7409L109.955 45.7412L114.521 46.6619M114.598 46.6271C114.598 46.6275 114.598 46.6279 114.598 46.6284L114.521 46.6619M114.598 46.6271C114.597 46.6267 114.597 46.6262 114.597 46.6258L114.521 46.6619M114.598 46.6271C114.626 46.6863 114.642 46.7505 114.645 46.816C114.648 46.8819 114.637 46.9478 114.614 47.0097C114.591 47.0716 114.556 47.1283 114.511 47.1763C114.466 47.2243 114.411 47.2627 114.351 47.2892C114.29 47.3157 114.225 47.3298 114.159 47.3306C114.093 47.3314 114.027 47.3189 113.966 47.2939C113.905 47.2689 113.85 47.2318 113.803 47.1849C113.757 47.1384 113.721 47.0831 113.696 47.0222M114.521 46.6619C114.545 46.7114 114.558 46.765 114.561 46.8198C114.563 46.8745 114.555 46.9292 114.536 46.9806C114.517 47.0319 114.488 47.0789 114.45 47.1188C114.412 47.1586 114.367 47.1905 114.317 47.2125C114.267 47.2345 114.213 47.2462 114.158 47.2469C114.103 47.2475 114.049 47.2372 113.998 47.2164C113.947 47.1956 113.901 47.1649 113.863 47.126C113.824 47.087 113.794 47.0408 113.773 46.9899M113.696 47.0222C113.696 47.0226 113.696 47.023 113.697 47.0234L113.773 46.9899M113.696 47.0222C113.601 46.8044 113.467 46.6059 113.3 46.4365M113.696 47.0222C113.696 47.0218 113.696 47.0214 113.696 47.021L113.773 46.9899M113.773 46.9899L113.3 46.4365M113.3 46.4365C113.126 46.2627 112.92 46.1248 112.692 46.0307C112.465 45.9366 112.222 45.8882 111.976 45.8882C111.73 45.8882 111.486 45.9366 111.259 46.0307C111.032 46.1249 110.825 46.2629 110.651 46.4368L110.592 46.3776L110.651 46.4368C110.49 46.5976 110.359 46.7952 110.262 47.0158C110.236 47.0751 110.199 47.1286 110.153 47.1735C110.106 47.2183 110.051 47.2536 109.991 47.2772C109.931 47.3008 109.866 47.3124 109.802 47.3111C109.737 47.3099 109.673 47.296 109.614 47.2701C109.555 47.2443 109.501 47.207 109.456 47.1604C109.412 47.1138 109.376 47.0589 109.353 46.9987C109.329 46.9385 109.318 46.8743 109.319 46.8096C109.32 46.745 109.334 46.6813 109.36 46.622C109.36 46.622 109.36 46.622 109.36 46.6219L113.3 46.4365ZM116.555 42.7816C116.833 43.0588 117.094 43.3754 117.323 43.706C117.384 43.7952 117.408 43.9053 117.388 44.0119C117.369 44.1185 117.307 44.2129 117.218 44.2745C117.129 44.336 117.019 44.3596 116.912 44.3401C116.806 44.3205 116.711 44.2594 116.65 44.1702C116.45 43.8803 116.225 43.6088 115.978 43.359M116.555 42.7816H116.639V42.781V42.747M116.555 42.7816V42.781V42.7816ZM116.639 42.747C116.911 43.0221 117.167 43.3336 117.391 43.6584L117.392 43.6585C117.466 43.766 117.494 43.8985 117.471 44.027C117.447 44.1554 117.373 44.2693 117.266 44.3434C117.158 44.4176 117.026 44.446 116.897 44.4224C116.769 44.3989 116.655 44.3252 116.581 44.2177L116.581 44.2176C116.384 43.9319 116.162 43.6643 115.918 43.4181M116.639 42.747V42.7463L116.614 42.7218C114.04 40.1477 109.866 40.1477 107.291 42.7218L107.291 42.7218C107.021 42.9928 106.759 43.3127 106.522 43.6539L106.522 43.6539L106.521 43.6555C106.45 43.7628 106.424 43.8936 106.449 44.02C106.473 44.1463 106.546 44.2581 106.651 44.3314C106.757 44.4048 106.887 44.4339 107.014 44.4124C107.141 44.391 107.254 44.3207 107.33 44.2167L107.33 44.2168L107.331 44.2152C107.537 43.919 107.762 43.644 107.987 43.4182C110.178 41.2283 113.728 41.2283 115.918 43.4181M116.639 42.747L115.978 43.359M115.918 43.4181C115.918 43.4182 115.918 43.4182 115.918 43.4182L115.978 43.359M115.918 43.4181C115.918 43.4181 115.918 43.418 115.918 43.418L115.978 43.359M112.854 47.8049C112.854 47.5659 112.759 47.3366 112.59 47.1676C112.421 46.9986 112.192 46.9037 111.953 46.9037C111.714 46.9037 111.485 46.9986 111.316 47.1676C111.147 47.3366 111.052 47.5659 111.052 47.8049C111.052 48.0439 111.147 48.2731 111.316 48.4421C111.485 48.6111 111.714 48.706 111.953 48.706C112.192 48.706 112.421 48.6111 112.59 48.4421C112.759 48.2731 112.854 48.0439 112.854 47.8049Z" fill="#2160FD" stroke="#2160FD" stroke-width="0.167516"/>
<rect x="103.742" y="69.625" width="260.25" height="156.916" rx="19.136" fill="#181B22"/>
<mask id="path-4-inside-1_5109_86572" fill="white">
<path d="M123.848 44.9728C123.848 42.1973 126.098 39.9473 128.873 39.9473H380.148C382.923 39.9473 385.173 42.1973 385.173 44.9728C385.173 47.7483 382.923 49.9982 380.148 49.9982H128.873C126.098 49.9982 123.848 47.7483 123.848 44.9728Z"/>
</mask>
<path d="M123.848 44.9728C123.848 42.1973 126.098 39.9473 128.873 39.9473H380.148C382.923 39.9473 385.173 42.1973 385.173 44.9728C385.173 47.7483 382.923 49.9982 380.148 49.9982H128.873C126.098 49.9982 123.848 47.7483 123.848 44.9728Z" fill="#303133"/>
<path d="M123.848 39.9473H385.173H123.848ZM385.173 49.9982H123.848H385.173ZM-63.7707 49.9982C-66.5462 49.9982 -68.7962 47.7483 -68.7962 44.9728C-68.7962 42.1973 -66.5462 39.9473 -63.7707 39.9473H316.491C316.491 39.9473 316.491 42.1973 316.491 44.9728C316.491 47.7483 316.491 49.9982 316.491 49.9982H-63.7707ZM385.173 39.9473V49.9982V39.9473Z" fill="#2160FD" mask="url(#path-4-inside-1_5109_86572)"/>
<path d="M42.9947 50.831C53.5115 50.831 62.0502 59.3008 62.1614 69.7907C61.1428 69.562 60.1596 69.1971 59.2385 68.7059C59.1716 67.8494 59.037 66.9996 58.836 66.1644H55.1138C54.704 66.0806 54.2816 66.0806 53.8718 66.1644H52.3979C52.4209 66.4001 52.442 66.6359 52.4592 66.8735C51.6063 67.5969 50.6754 68.223 49.6839 68.7404C49.6532 67.8587 49.5938 67 49.5037 66.1663H36.4857C36.1486 69.3581 36.2356 72.5806 36.7445 75.7496H42.9947V78.6246H37.3597C38.6113 83.2514 40.7829 86.2951 42.9947 86.2951C43.5237 86.2951 44.0508 86.1207 44.5645 85.791C45.1834 86.8916 45.9559 87.8983 46.8587 88.781C45.6091 89.0359 44.3172 89.1701 42.9947 89.1701C32.4071 89.1701 23.8242 80.5873 23.8242 70.0015C23.8242 59.4139 32.4071 50.831 42.9947 50.831ZM34.3851 78.6265H29.166C31.0173 81.5872 33.7678 83.8776 37.0147 85.1624C36.0123 83.5907 35.1862 81.6242 34.5806 79.3836L34.3851 78.6265ZM33.5896 66.1663H27.1535L27.1458 66.1989C26.8484 67.4445 26.6985 68.7208 26.6992 70.0015C26.6992 72.0255 27.0691 73.9633 27.7438 75.7515H33.8254C33.5441 73.8478 33.4045 71.9259 33.4076 70.0015C33.4076 68.6905 33.4708 67.4064 33.5896 66.1663ZM37.0166 54.8388L36.9726 54.8541C33.0492 56.42 29.8842 59.4436 28.1406 63.2913H33.9826C34.5825 59.9333 35.6309 57.0084 37.0166 54.8388ZM42.9947 53.706L42.7724 53.7156C40.3459 53.9379 38.0037 57.7751 36.9151 63.2913H49.0725C47.9876 57.7904 45.6531 53.959 43.2362 53.7175L42.9947 53.706ZM48.9747 54.8369L49.1779 55.1723C50.4621 57.3036 51.4357 60.1019 52.005 63.2932H57.847C56.1835 59.6214 53.2226 56.6932 49.5325 55.0707L48.9747 54.8369ZM63.1197 71.8722C59.4646 71.5425 56.5379 69.4054 55.2326 68.288C55.0255 68.1153 54.7644 68.0206 54.4947 68.0206C54.225 68.0206 53.9639 68.1153 53.7568 68.288C52.4496 69.4054 49.521 71.5425 45.8678 71.8722C45.612 71.8902 45.3721 72.0029 45.195 72.1882C45.0178 72.3736 44.916 72.6183 44.9095 72.8746V79.5829C44.9095 87.677 52.7563 90.5386 54.2494 91.0101C54.4084 91.0608 54.5792 91.0608 54.7381 91.0101C56.2331 90.5386 64.0761 87.6751 64.0761 79.5829V72.8746C64.0696 72.6183 63.9678 72.3736 63.7907 72.1882C63.6135 72.0029 63.3755 71.8902 63.1197 71.8722Z" fill="white" fill-opacity="0.5"/>
</g>
<defs>
<linearGradient id="paint0_linear_5109_86572" x1="233.584" y1="18" x2="233.584" y2="211.255" gradientUnits="userSpaceOnUse">
<stop stop-color="#5C5C5C"/>
<stop offset="1" stop-opacity="0"/>
</linearGradient>
<clipPath id="clip0_5109_86572">
<rect width="344" height="144" fill="white"/>
</clipPath>
</defs>
</svg>
